<svg width="1058" height="647" viewBox="0 0 1058 647" fill="none" xmlns="http://www.w3.org/2000/svg">
<g clip-path="url(#clip0)">
<path d="M1058 0H0V647H1058V0Z" fill="white"/>
<path fill-rule="evenodd" clip-rule="evenodd" d="M390.043 265.366C394.206 249.17 398.129 232.62 404.306 217.055C408.172 207.315 412.268 197.662 416.371 188.02C416.94 186.682 417.181 185.392 418.288 184.725C419.767 183.835 422.826 183.854 424.494 183.548C448.194 179.199 472.14 175.879 496.165 174.011C523.581 171.88 550.31 172.855 577.439 177.326C600.639 181.149 623.611 186.418 646.332 192.452C649.672 193.338 653.007 194.244 656.335 195.175C657.886 195.609 660.461 195.831 661.813 196.736C664.702 198.671 665.683 206.602 666.766 209.962C668.217 214.465 669.062 220.652 671.859 224.483C676.025 230.185 682.364 235.132 687.527 239.873C705.546 256.418 725.298 271.511 748.569 279.691C784.57 292.345 822.533 300.277 859.827 308.118C860.695 308.3 861.563 308.482 862.431 308.662C852.777 319.36 843.122 330.058 833.468 340.756C828.025 346.786 822.582 352.817 817.14 358.847C814.342 361.948 814.648 362.502 810.69 361.638C790.859 357.308 771.064 352.588 751.592 346.835C742.047 344.015 732.337 341.087 723.456 336.519C711.233 330.232 699.759 322.461 688.592 314.478C678.61 307.342 668.862 299.878 659.29 292.201C657.403 290.688 650.594 283.393 648.386 283.868C646.481 284.278 643.184 288.615 641.789 289.878C638.1 293.22 634.397 296.545 630.67 299.843C624.739 305.091 618.682 311.519 611.754 315.469C604.454 319.632 596.087 322.468 588.381 325.783C584.083 327.631 579.781 329.473 575.478 331.31C574.354 331.79 572.786 332.833 571.574 332.859C567.987 332.935 562.779 330.018 559.452 328.882C550.906 325.962 542.423 322.858 534.027 319.529C516.101 312.422 496.399 304.7 481.646 291.91C479.072 289.68 476.557 287.183 474.853 284.202C474.263 283.168 473.384 281.729 473.324 280.509C473.228 278.564 474.321 278.182 475.946 276.966C484.338 270.69 493.386 265.22 502.285 259.704C504.376 258.409 506.471 257.119 508.573 255.841L404.596 264.196C399.745 264.587 394.894 264.976 390.043 265.366Z" fill="#FF5678"/>
<path fill-rule="evenodd" clip-rule="evenodd" d="M544.871 67.2651C555.857 67.7665 567.118 68.2774 578.008 69.8245C588.863 71.366 598.992 75.3091 608.803 80.0836C626.492 88.6919 644.572 99.1558 655.95 115.714C661.269 123.456 665.608 131.562 672.951 137.656C674.669 139.082 676.541 140.795 678.82 141.231C680.633 141.577 682.232 140.843 684.007 140.755C687.395 140.587 688.678 142.374 688.678 145.742C691.221 144.726 693.99 143.807 696.764 144.18C699.082 144.493 700.926 145.892 703.152 146.48C707.169 147.542 711.101 145.954 714.921 144.771C724.57 141.784 735.169 139.522 745.307 140.587C751.985 141.29 760.076 144.187 756.619 152.794C753.751 159.933 743.028 163.547 736.255 165.323C730.494 166.834 722.748 165.485 723.235 173.439C723.574 178.991 724.414 184.946 730.311 186.748C733.545 187.735 745.001 189.207 738.311 194.216C733.371 197.915 731.646 204.427 727.889 209.317C723.099 215.55 716.607 220.589 709.017 222.864C700.525 225.409 691.539 224.921 682.815 225.908C688.96 234.392 697.83 240.228 705.905 246.679C714.395 253.463 722.586 260.877 732.412 265.712C741.219 270.047 750.735 273.057 759.831 276.732C769.385 280.592 779.006 284.408 788.867 287.415C808.759 293.481 829.683 297.718 850.133 301.438C860.225 303.275 870.121 303.006 880.315 303.169C890.772 303.337 901.223 305.172 911.488 307.056C916.464 307.97 921.488 308.547 926.464 309.457C928.851 309.894 938.303 310.857 938.642 314.356C939.194 320.055 933.033 323.249 928.522 324.839C926.596 325.518 923.493 325.419 921.825 326.352C920.02 327.362 920.725 328.849 920.518 330.804C920.217 333.646 918.698 335.69 916.368 337.267C914.452 338.563 912.142 338.512 913.463 340.968C914.072 342.101 915.596 342.814 916.299 344.009C917.102 345.371 917.472 346.866 917.308 348.433C917.023 351.179 915.211 353.273 912.683 354.244C908.642 355.796 903.899 354.698 899.76 354.194C892.835 353.351 885.807 353.267 878.974 351.751C871.849 350.17 864.916 347.734 857.784 346.116C854.126 345.286 850.461 344.59 846.887 343.439C844.562 342.691 841.2 340.747 838.723 341.356C836.403 341.925 834.59 344.729 833.073 346.356C830.979 348.6 828.952 350.906 826.825 353.119C825.415 354.584 823.969 356.02 822.43 357.35C821.93 357.782 818.839 359.673 818.796 360.181C818.676 361.615 822.049 361.59 822.772 362.16C826.971 365.48 820.661 367.581 817.939 367.415C811.664 367.032 805.357 366.261 799.142 365.339C784.343 363.143 769.587 360.771 755.438 355.812C741.443 350.906 727.786 345.688 714.841 338.375C702.416 331.357 690.398 323.422 678.662 315.312C672.967 311.376 667.233 307.298 662.424 302.285C657.721 297.381 653.888 291.752 649.988 286.211C640.648 295.236 631.66 304.727 621.628 313.001C612.085 320.871 600.612 325.075 589.512 330.187C589.871 332.51 600.721 333.901 602.703 334.504C611.753 337.259 620.437 341.681 629.239 345.148C643.882 350.916 657.776 358.423 662.653 374.443C667.448 390.194 661.887 406.049 655.104 420.279C647.099 437.076 637.591 452.634 626.095 467.278C621.206 473.508 615.939 479.242 610.573 485.044C605.995 489.993 602.07 495.857 603.989 502.891C607.673 501.74 608.348 504.615 605.939 507.051C603.798 509.215 600.097 509.635 597.239 509.993C588.572 511.08 579.62 510.696 570.943 509.888C555.146 508.416 539.313 504.427 525.011 497.562C517.896 494.147 515.321 499.654 510.427 503.919C506.576 507.274 501.275 509.449 498.349 513.791C495.942 517.362 497.513 523.005 502.513 521.667C506.404 520.625 509.529 516.283 513.65 516.116C520.964 515.819 507.164 526.259 505.399 527.534C508.894 530.661 512.857 526.372 516.382 525.656C519.762 524.969 520.706 526.721 518.905 529.54C517.5 531.738 513.088 533.295 516.022 535.969C518.454 538.184 523.845 539.35 526.83 540.321C536.143 543.351 545.408 545.506 555.104 546.89C558.235 547.336 563.254 547.05 565.793 549.271C569.14 552.2 567.526 557.054 565.832 560.41C559.412 573.121 546.066 579.369 532.358 580.284C523.916 580.847 515.395 580.302 506.926 580.758C497.646 581.257 488.345 581.999 479.044 581.693C464.09 581.2 454.577 570.386 447.122 558.495C442.386 550.939 438.021 543.165 433.921 535.248C432.32 532.156 428.966 528.952 428.395 525.476C427.88 522.348 429.875 519.839 431.814 517.625C436.914 511.8 443.052 507.354 449.048 502.541C452.471 499.793 453.788 497.518 455.312 493.518C456.595 490.151 459.063 488.712 461.235 486.025C463.625 483.07 462.874 482.547 461.011 480.132C459.06 477.603 459.827 473.877 460.646 471.015C461.82 466.909 464.34 466.006 468.103 464.682C471.535 463.477 474.444 461.361 477.486 459.398C492.515 449.702 506.675 438.73 521.89 429.304C536.9 420.004 552.588 411.79 566.914 401.413C555.28 399.848 545.024 393.563 534.05 389.842C528.419 387.932 522.841 385.892 517.392 383.502C515.311 382.589 512.887 381.778 511.03 380.436C509.165 379.087 507.732 377.313 505.777 376.037C501.137 373.008 495.621 371.284 490.632 368.923C485.244 366.373 479.926 363.587 474.919 360.342C470.245 357.312 465.757 353.85 461.87 349.848C458.774 346.661 455.763 342.507 451.38 341.042C451.84 347.15 459.402 352.208 463.547 355.884C470.272 361.848 477.263 366.917 484.781 371.843C476.349 379.07 466.072 383.777 456.198 388.659C445.095 394.148 434.304 400.232 423.246 405.806C413.879 410.528 404.024 414.167 394.503 418.554C384.231 423.288 373.658 427.257 362.941 430.858C353.241 434.117 344.11 437.593 334.958 442.167C326.061 446.615 316.542 450.016 307.024 452.87C296.33 456.077 286.128 459.127 275.843 463.524C266.569 467.487 257.257 470.021 247.442 472.176C244.2 472.888 240.037 474.195 237.767 471.054C236.046 468.674 235.787 465.004 235.293 462.205C233.401 451.494 233.251 440.612 231.549 429.884C225.088 431.835 218.969 434.235 212.153 434.544C207.869 434.738 205.265 435.181 204.197 439.861C206.676 440.141 215.532 440.264 215.771 443.776C215.988 446.945 210.629 446.977 208.729 447.064C205.329 447.219 202.247 446.661 200.432 449.991C203.106 450.979 209.034 449.178 210.218 452.776C211.744 457.417 204.815 457.406 202.323 457.78C197.973 458.432 198.42 461.849 198.718 465.502C199.11 470.308 199.407 475.121 200.056 479.902C201.442 490.12 203.816 500.183 204.941 510.438C205.913 519.305 206.458 527.822 200.123 534.888C197.576 537.73 194.035 541 190.032 541.338C185.97 541.681 186.044 538.834 183.515 536.739C181.965 535.456 179.913 535.193 178.088 534.501C175.867 533.659 173.713 532.426 171.718 531.148C168.041 528.794 164.827 525.871 162.227 522.358C152.06 508.614 148.425 488.08 147.418 471.414C146.778 460.817 147.417 450.206 148.389 439.651C148.912 433.965 149.439 428.277 150.126 422.609C150.339 420.853 150.695 419.094 150.828 417.333C150.903 416.324 150.417 414.286 150.932 413.32C150.275 414.553 149.111 413.641 147.955 412.67C145.568 410.664 146.303 406.814 147.579 404.178C151.425 396.232 162.951 395.923 170.449 395.305C190.603 393.644 209.751 388.237 229.046 382.462C226.323 378.382 230.606 375.689 233.926 374.287C239.046 372.126 244.333 370.225 249.501 368.16C261.17 363.497 272.597 359.15 284.817 356.175C295.886 353.481 306.597 349.007 317.518 345.728C328.801 342.34 339.88 338.468 350.979 334.522C372.959 326.705 394.96 318.72 416.292 309.239C421.684 306.842 426.835 304.063 432.039 301.291C436.266 299.039 441.227 297.388 444.811 294.135C448.233 291.029 450.282 286.709 454.002 283.889C457.351 281.348 461.934 281.313 464.709 278.158C468.462 273.892 472.943 272.017 478.037 269.515C479.673 268.712 490.448 264.651 490.228 262.347C482.529 262.347 474.625 264.639 467.011 265.706C458.958 266.835 450.911 268.09 442.798 268.714C429.653 269.725 416.514 269.451 403.425 268.026C401.469 267.813 393.622 266.202 392.269 268.3C391.238 269.9 393.801 271.804 393.827 273.523C393.865 276.045 391.833 277.397 389.532 276.521C385.053 274.817 385.71 267.596 386.128 263.931C386.929 256.921 388.71 249.975 390.267 243.107C381.026 247.813 372.25 253.854 364.293 260.495C358.128 265.637 352.562 272.611 345.329 276.277C338.384 279.799 334.254 276.795 334.539 269.043C334.67 265.491 335.389 262.12 336.618 258.812C337.199 257.249 339.585 252.825 338.468 251.16C332.12 256.224 325.815 261.301 319.152 265.95C314.441 269.236 307.613 274.361 301.463 273.057C296.031 271.906 296.563 265.926 298.285 261.898C299.778 258.403 302.461 255.299 305.12 252.63C307.319 250.425 310.446 248.448 311.547 245.39C304.252 248.67 296.741 251.152 289.099 253.457C283.665 255.096 279.866 261.903 273.546 260.897C267.22 259.891 269.739 252.069 272.264 248.668C274.031 246.289 276.476 244.193 278.847 242.435C281.159 240.72 284.676 239.225 285.814 236.371C278.424 237.758 270.993 240.171 263.389 239.726C258.873 239.462 251.334 237.489 252.226 231.415C253.128 225.265 261.314 224.794 265.917 223.647C272.192 222.083 278.198 219.145 284.254 216.906C296.47 212.386 308.925 208.761 321.424 205.159L325.372 204.021C339.481 199.953 353.669 196.488 367.953 193.108C375.013 191.438 382.048 189.616 389.163 188.19C396.047 186.812 403.042 186.013 409.873 184.365C404.116 175.67 411.087 168.525 418.615 164.388C413.84 163.422 408.985 162.841 404.252 161.67C400.209 160.67 396.313 159.134 392.241 158.249C385.243 156.729 378.253 155.93 372.279 151.594C360.989 143.4 360.029 130.361 369.542 120.494C379.142 110.535 393.233 105.873 406.794 105.41C421.973 104.891 439.243 107.835 453.446 113.212C460.423 115.854 467.687 119.212 473.668 123.71C477.736 126.77 484.17 132.633 489.631 132.633C483.09 124.72 475.064 116.537 473.883 105.819C472.765 95.6726 477.365 84.8875 485.085 78.3244C500.509 65.2143 525.962 66.4011 544.871 67.2651ZM456.937 502.154C452.911 508.418 447.343 513.504 442.086 518.703C440.273 520.497 436.634 522.778 436.458 525.587C436.316 527.88 439.128 530.46 440.357 532.262C446.851 541.793 452.198 552.32 460.131 560.785C469.097 570.351 479.33 572.21 492.027 572.237C506.124 572.269 520.409 574.033 534.481 573.289C546.402 572.659 558.153 567.348 564.081 556.552C560.219 554.561 554.724 555.51 550.538 555.555C544.831 555.615 539.261 555.512 533.623 554.52C528.513 553.62 523.462 552.269 518.656 550.298C516.169 549.277 513.709 548.111 511.419 546.693C509.742 545.656 508.482 544.067 506.835 543.049C500.759 539.296 493.743 551.23 487.25 551C483.272 550.86 484.712 546.946 486.367 544.757C489.355 540.803 494.566 538.362 498.501 535.48C494.838 532.106 490.699 535.645 487.211 537.407C482.85 539.611 478.319 542.317 473.447 543.145C473.812 536.862 482.353 533.495 487.066 530.939C489.163 529.802 491.791 528.747 492.307 526.246C492.695 524.365 492.031 521.69 491.834 519.791C491.584 517.376 491.399 516.605 488.829 515.924C485.713 515.098 482.574 515.337 479.452 514.306C470.907 511.483 464.26 507.292 456.937 502.154ZM179.238 403.149C177.151 403.728 175.043 404.229 172.923 404.677C168.729 405.562 164.528 406.482 160.319 407.285C158.208 407.688 155.864 407.432 155.241 409.448C154.922 410.482 155.726 412.34 155.864 413.413C156.112 415.349 156.128 417.311 156.151 419.261C156.372 437.224 152.618 455.084 154.271 473.046C155.667 488.226 158.934 507.422 170.079 518.728C174.89 523.607 180.808 528.907 186.865 532.241C191.614 534.855 198.247 528.295 199.217 523.754C199.912 520.5 198.753 517.066 197.998 513.929C197.03 509.909 196.05 505.891 195.092 501.87C193.046 493.285 191.186 484.621 190.598 475.796C190.405 472.897 190.447 470.104 190.61 467.217C190.699 465.649 191.437 461.872 190.341 460.53C188.923 458.793 185.685 459.928 183.767 460.076C181.665 460.239 179.612 460.113 177.558 459.577C172.669 458.298 171.812 454.41 177.151 452.609C180.878 451.351 187.692 453.173 190.823 450.753C194.503 447.91 187.066 447.52 185.33 447.446C183.018 447.348 175.348 447.953 175.74 443.641C176.029 440.444 182.631 440.232 184.941 440.096C189.876 439.806 196.12 441.655 198.253 435.702C199.108 433.317 193.961 432.106 192.67 430.924C189.531 428.049 188.502 423.121 188.232 419.084C187.967 415.114 191.873 401.351 185.922 400.987C184.094 400.875 181.057 402.645 179.238 403.149ZM471.936 482.577C468.434 486.75 465.407 491.32 462.144 495.681C469.795 499.905 477.621 503.302 485.532 506.934C489.13 508.586 491.652 509.896 495.134 507.391C497.632 505.595 499.504 503.041 501.942 501.173C505.446 498.49 509.107 496.029 512.698 493.471C502.101 489.602 491.342 486.208 480.747 482.331C476.785 480.881 474.797 479.168 471.936 482.577ZM384.678 469.324C386.944 471.623 382.581 477.992 381.722 480.172C388.749 479.615 395.717 478.506 402.617 477.079C404.967 476.594 404.1 479.456 403.221 480.4C402.134 481.569 399.959 481.922 398.506 482.339C393.157 483.872 387.671 484.61 382.183 485.429C384.695 488.521 390.738 493.358 388.792 498.007C385.282 494.982 382.758 490.954 378.876 488.338C377.754 490.012 375.427 495.919 372.876 495.557C368.872 494.989 372.929 488.087 373.766 486.425C371.07 486.425 360.938 488.792 359.525 485.472C358.078 482.075 367.855 482.184 369.663 481.382L369.326 480.971L368.987 480.562C367.636 478.933 366.338 477.326 366.155 475.088C369.178 476.13 371.197 480.869 374.519 480.937C377.67 481.003 379.076 476.267 380.199 474.024C380.837 472.749 383.005 467.626 384.678 469.324ZM725.603 424.651C732.377 430.368 727.775 441.898 722.649 447.081C716.906 452.888 704.119 458.222 696.84 452.303C692.855 449.063 694.293 444.12 695.275 439.811C696.365 435.022 697.044 430.985 701.009 427.698C707.177 422.585 718.73 418.852 725.603 424.651ZM711.851 427.973C705.242 429.379 698.545 435.985 696.974 442.794C694.914 451.722 704.178 452.375 710.281 451.033C717.959 449.345 726.116 443.713 726.508 434.878C726.845 427.253 716.987 426.88 711.851 427.973ZM230.923 389.372C221.026 393.057 211.723 398.099 201.339 400.286C198.17 400.953 196.869 401.684 196.085 404.637C194.988 408.77 193.948 412.96 194.731 417.278C196.358 426.245 208.831 425.147 215.757 424.795C219.313 424.614 226.152 425.264 229.237 423.045C231.49 421.424 230.545 418.383 230.194 416.017C228.88 407.17 230.313 398.214 230.923 389.372ZM770.52 303.923C766.876 304.61 760.576 307.581 765.8 311.307C769.286 313.79 774.473 314.092 778.567 314.706C786.566 315.905 795.104 316.94 802.044 321.454C814.905 329.818 813.33 345.602 809.483 358.519C812.254 360.152 820.392 349.478 821.926 347.743C828.144 340.701 834.388 333.682 840.657 326.685C843.341 323.693 821.344 313.358 819.367 312.427C808.917 307.509 799.163 304.27 787.442 303.426C781.884 303.026 776.021 302.886 770.52 303.923ZM725.151 277.742C724.152 280.261 725.902 281.403 727.509 283.142C736.495 292.867 742.822 306.632 747.825 318.705C750.32 324.725 752.067 330.796 753.612 337.103C755.128 343.292 759.942 344.946 765.711 346.702C778.998 350.749 792.986 352.104 806.32 356.101C809.893 357.172 810.593 349.314 810.818 347.321C811.456 341.65 810.863 335.733 807.885 330.735C802.255 321.286 790.968 319.278 780.901 317.668C775.143 316.748 767.558 315.798 763.001 311.86C760.715 309.883 760.391 307.616 762.174 305.16C765.426 300.681 771.152 300.106 776.268 299.74C778.76 299.562 794.187 301.123 794.691 299.296C787.01 296.792 779.125 295.14 771.556 292.276C765.652 290.042 759.7 287.932 753.742 285.84L747.783 283.751C741.724 281.625 736.176 279.039 730.362 276.479C728.178 275.519 726.175 275.162 725.151 277.742ZM855.453 318.718C853.529 321.307 851.621 323.48 850.178 326.388C848.495 329.781 845.704 331.945 843.37 334.858C855.49 336.998 867.052 339.715 878.729 343.635C884.724 345.647 890.917 346.642 897.05 348.083C902.194 349.292 907.676 351.167 913.003 350.058C906.936 341.693 890.755 344.006 886.495 333.875C883.596 326.983 890.719 321.486 896.546 320.29C906.721 318.201 917.568 318.04 927.903 317.296C928.011 313.34 890.496 311.292 886.786 310.971C880.2 310.401 873.326 309.166 866.752 308.938C860.65 308.726 858.656 314.41 855.453 318.718ZM712.296 289.785C708.682 293.279 705.145 296.85 701.534 300.35C699.161 302.65 695.946 305.1 694.075 307.841C691.687 311.341 695.87 313.023 698.658 314.679C705.695 318.861 712.968 322.764 720.128 326.741C726.561 330.314 733.251 334.863 740.352 336.953C744.15 338.071 747.716 339.806 751.379 341.274C749.612 325.408 740.506 310.997 732.109 297.77C730.181 294.732 728.19 291.737 726.262 288.701C725.29 287.172 723.488 283.564 721.451 283.253C718.441 282.792 714.121 288.02 712.296 289.785ZM896.41 330.166C900.812 332.689 905.224 333.972 910.189 332.065C911.41 331.567 912.62 331.039 913.814 330.484C910.506 325.97 900.721 328.721 896.41 330.166ZM531.847 274.951C524.044 278.47 515.698 281.976 508.913 287.286C506.408 289.246 500.81 293.364 502.12 297.099C503.241 300.297 509.438 303.02 512.379 303.995C527.857 309.121 545.474 305.391 559.726 314.799C563.583 317.344 564.84 320.672 567.705 324.019C570.297 327.047 573.576 326.671 577.058 325.415C581.63 323.765 585.844 321.238 590.435 319.619C592.782 318.791 596.77 318.242 597.014 315.073C598.162 300.135 594.977 281.104 581.816 271.964C567.042 261.704 546.661 268.269 531.847 274.951ZM523.479 309.761C523.102 311.655 537.746 315.084 539.337 315.523C548.179 317.96 556.441 323.754 565.6 324.688C567.193 321.134 554.505 315.476 552.499 314.747C543.342 311.419 533.096 310.816 523.479 309.761ZM811.049 303.127C822.151 307.679 832.912 313.253 842.218 321.003C845.428 323.675 853.226 310.991 854.972 309.047C840.185 308.432 825.613 305.609 811.049 303.127ZM603.545 213.902C593.252 220.705 584.288 229.6 572.989 234.815C576.525 235.372 580.385 233.082 583.761 232.278C587.05 231.497 590.375 230.98 593.576 229.873C595.543 229.193 603.664 224.801 605.188 227.778C607.569 232.427 590.798 235.644 588.413 236.437C580.36 239.115 572.36 241.92 564.39 244.834C556.669 247.656 548.955 250.693 540.977 252.72C532.875 254.779 524.283 255.309 516.494 258.506C509.606 261.333 503.685 266.012 497.042 269.314C490.378 272.626 482.805 274.674 477.062 279.602C483.307 286.271 490.693 291.855 498.773 296.106C500.068 285.937 511.981 280.146 520.131 276.237C537.9 267.716 564.585 254.865 582.695 269.306C595.932 279.861 597.725 299.888 597.725 315.566C601.31 314.424 604.584 312.607 607.914 310.892C610.221 309.703 610.247 306.394 610.537 304.184C611.012 300.565 611.99 297.06 613.114 293.588C615.598 285.907 618.709 278.414 621.674 270.911C626.472 258.774 632.385 246.803 635.334 234.034C637.258 225.701 639.547 211.377 629.505 207.241C620.817 203.663 610.599 209.24 603.545 213.902ZM558.597 179.983C556.919 181.108 557.545 184.484 557.659 186.178C558.076 192.337 557.815 198.522 558.021 204.692C558.272 212.21 558.327 225.996 566.075 230.211C571.375 233.094 577.966 228.774 582.195 225.832C589.351 220.857 595.916 215.078 603.171 210.221C611.772 204.462 628.069 196.496 636.299 207.329C640.753 213.192 640.128 221.929 639.017 228.75C637.55 237.751 634.124 246.287 630.72 254.698C623.689 272.067 616.351 289.718 612.441 308.103C621.355 302.802 628.288 295.162 636.068 288.45C641.835 283.475 650.4 277.762 651.731 269.655C652.032 267.824 653.804 266.519 655.022 265.294C656.608 263.7 657.725 262.085 658.73 260.051C660.948 255.559 662.389 250.707 663.297 245.791C665.203 235.478 664.295 225.213 662.538 214.96C661.743 210.324 662.909 205.349 661.829 200.829C661.079 197.691 658.866 197.877 655.921 197.163C645.317 194.593 634.693 192.101 624.082 189.555C619.773 188.519 615.087 186.578 610.612 186.643C606.939 186.696 603.854 188.887 600.684 190.474C595.48 193.079 587.207 197.638 581.232 195.047C574.268 192.028 582.383 185.211 578.891 181.986C576.497 179.774 569.341 181.1 566.095 180.551C564.315 180.25 560.229 178.889 558.597 179.983ZM668.177 269.046C663.113 269.844 660.18 272.042 657.391 276.355C654.557 280.738 654.219 282.908 658.261 286.338C662.619 290.037 667.18 293.69 671.807 297.021C677.672 301.244 684.179 304.44 689.976 308.765C692.514 310.66 704.037 295.809 706.036 293.772C708.794 290.963 711.625 288.146 714.584 285.56C715.666 284.615 719.056 282.423 719.057 280.816C719.061 276.754 710.057 273.119 707.161 272.001C700.669 269.496 693.864 268.485 686.947 268.38C680.817 268.287 674.25 268.087 668.177 269.046ZM690.745 251.175C685.99 253.701 681.024 255.83 676.239 258.303C674.542 259.18 663.839 263.679 664.379 266.367C676.424 265.604 688.415 263.564 700.421 265.897C705.813 266.945 710.951 268.702 715.456 271.943C718.869 274.396 721.47 279.111 724.858 274.915C717.941 270.993 711.712 265.794 705.577 260.747C702.893 258.537 700.13 256.459 697.405 254.31C695.784 253.031 693.111 249.919 690.745 251.175ZM405.855 192.451C402.087 192.981 398.415 193.979 394.715 194.837C379.724 198.311 364.677 201.43 349.726 205.106C319.905 212.438 289.193 219.508 260.758 231.255C263.149 233.899 269.484 231.983 272.451 231.465C278.259 230.45 283.896 228.675 289.634 227.336C295.246 226.027 300.879 224.466 306.538 223.374C309.145 222.872 313.742 222.21 313.847 226.119C313.996 231.662 303.234 235.807 299.283 237.833C295.059 239.999 290.97 242.393 286.949 244.912C283.77 246.904 277.907 249.559 276.876 253.517C287.192 249.144 297.514 244.789 307.767 240.269C311.628 238.566 315.541 236.962 319.218 234.884C321.669 233.499 324.824 231.068 327.726 230.85C331.657 230.554 332.308 234.124 330.652 237.005C328.58 240.612 324.303 242.646 321.158 245.17C317.148 248.388 313.599 252.185 309.988 255.828C306.991 258.851 303.132 261.828 301.567 265.917C306.955 267.72 313.077 261.94 317.036 259.084C323.258 254.595 329.053 249.712 334.988 244.861C338.025 242.379 341.644 238.36 345.641 237.619C350.706 236.679 350.286 242.473 349.058 245.666C346.313 252.805 339.886 258.756 339.426 266.803C339.144 271.758 343.338 269.872 346.136 267.885C350.848 264.538 354.037 259.438 358.314 255.6C368.612 246.355 380.401 238.469 393.14 232.993C395.42 232.013 396.24 228.494 396.933 226.38C397.967 223.223 399.158 220.163 400.401 217.078C403.125 210.321 405.359 203.017 409.176 196.775C410.241 195.034 412.987 193.26 410.715 192.236C409.481 191.68 407.13 192.272 405.855 192.451ZM514.604 181.02C510.745 181.471 506.84 181.43 502.974 181.838C496.664 182.503 499.416 190.183 498.4 194.81C495.407 208.432 480.976 211.005 470.041 204.578C463.889 200.962 460.195 195.779 456.887 189.716C455.001 186.26 453.596 185.704 449.694 186.569C447.016 187.163 444.58 187.037 441.856 187.234C438.428 187.483 438.129 188.21 438.059 191.474C437.997 194.373 437.58 196.381 435.651 198.729C431.975 203.202 425.811 206.147 420.56 208.394C415.299 210.647 409.34 212.321 406.45 217.644C404.994 220.328 403.433 223.531 403.012 226.582C402.551 229.915 403.681 231.983 401.739 235.057C397.701 241.449 395.85 248.434 393.808 255.698C393.143 258.064 392.88 259.038 395.462 259.688C399.166 260.622 404.427 259.205 408.228 259.056C410.94 258.95 412.524 254.165 413.405 252.227C415.119 248.458 417.22 244.889 419.324 241.321C424.093 233.24 429.192 225.212 435.422 218.151C440.124 212.822 447.065 206.188 453.086 213.677C458.953 220.975 463.182 229.523 470.238 235.884C476.445 241.48 482.84 241.569 489.276 236.266C495.613 231.045 500.429 223.923 504.368 216.816C508.627 209.13 511.84 200.925 515.991 193.194C517.292 190.771 523.301 184.215 521.47 181.408C520.234 179.511 516.339 180.818 514.604 181.02ZM546.921 179.344C543.524 179.505 540.106 179.123 536.709 179.055C530.562 178.933 525.42 179.148 522.333 185.043C519.608 190.244 517.287 195.778 514.8 201.105C509.397 212.676 504.097 224.516 495.802 234.362C488.454 243.085 478.96 247.48 469.4 239.147C465.162 235.452 461.942 230.685 458.9 225.999C456.462 222.243 453.679 215.632 449.594 213.442C445.039 211.001 439.824 216.601 437.04 219.64C432.359 224.749 428.446 230.758 424.688 236.559C421.963 240.767 419.353 245.064 416.704 249.321C415.631 251.047 411.257 256.694 412.713 258.845C414.173 261.001 421.297 259.527 423.359 259.33C428.281 258.86 433.197 258.69 438.121 258.266C453.439 256.948 468.53 253.581 483.887 252.682C494.003 252.089 503.971 250.133 513.928 248.355C523.611 246.627 533.355 245.448 542.934 243.164C548.566 241.821 554.209 240.476 559.83 239.083C561.775 238.601 570.968 237.287 571.54 234.758C565.209 233.652 561.886 231.195 559.641 225.016C556.83 217.277 556.503 208.652 556.263 200.497C556.171 197.361 556.156 194.222 556.154 191.084L556.154 187.319C556.153 185.068 557.125 180.984 555.097 179.423C553.221 177.979 549.095 179.24 546.921 179.344ZM672.589 229.321C672.854 239.519 671.032 249.797 666.846 259.114C671.225 259.816 676.434 254.318 680.108 252.477C681.523 251.767 690.892 248.36 687.755 245.756C681.983 240.966 678.199 234.273 672.589 229.321ZM798.171 237.614C799.456 240.15 797.869 243.368 797.01 245.773C803.693 247.38 810.348 248.958 817.081 250.322C822.155 251.35 820.385 254.395 815.98 254.185C809.855 253.893 804.155 251.297 798.06 250.96C792.253 250.638 791.57 255.71 786.619 256.687C786.788 253.896 789.044 251.958 790.664 249.865C787.993 248.493 785.264 247.218 782.672 245.707C781.33 244.925 777.621 241.642 779.049 239.898C780.491 238.138 784.27 241.437 785.615 242.163C787.527 243.196 791.344 245.473 793.593 244.82C796.674 243.925 796.033 239.5 798.171 237.614ZM701.885 171.17C699.174 171.358 696.225 170.445 693.657 171.639C691.097 172.83 688.041 175.436 685.9 177.243C683.828 178.993 682.797 181.118 680.219 182.151C677.645 183.183 675.008 183.092 674.015 186.241C676.351 186.882 680.936 186.032 682.765 187.75C685.425 190.25 680.783 193 678.857 193.787C676.095 194.915 673.836 194.549 671.012 194.337C669.783 194.246 669.794 193.868 668.788 194.477C665.055 196.735 667.638 204.766 668.849 207.696C674.774 222.038 695.018 217.208 706.693 215.739C702.978 211.995 696.893 207.864 696.586 201.982C696.495 200.231 696.929 197.101 699.176 196.955C700.973 196.839 703.129 199.555 704.248 200.625C707.565 203.798 711.857 209.059 716.654 209.514C723.067 210.123 728 199.731 730.66 195.199C727.391 194.584 723.81 194.62 721.91 191.411C719.651 187.598 719.612 181.755 719.651 177.461C719.685 173.805 720.85 169.806 715.966 169.626C711.466 169.461 706.428 170.855 701.885 171.17ZM271.289 180.546C270.355 182.585 266.295 183.385 264.512 183.93C257.732 186.002 251.112 188.634 244.502 191.215C231.157 196.428 217.958 202.184 205.773 209.844C203.496 211.276 204.611 208.514 205.203 207.518C206.529 205.284 209.315 203.704 211.396 202.336C217.027 198.633 222.992 196.032 229.218 193.554C241.678 188.599 254.327 183.344 267.105 179.329C268.587 178.864 272.545 177.806 271.289 180.546ZM426.058 190.644C423.581 190.901 420.679 190.337 418.297 191.146C415.192 192.2 415.704 194.332 414.785 196.955C413.227 201.406 411.559 205.82 409.933 210.248C415.952 209.967 421.717 205.199 426.819 202.454C429.707 200.901 439.746 195.745 436.719 191.024C434.802 188.037 428.808 190.359 426.058 190.644ZM494.563 182.884C490.836 182.817 486.738 183.946 482.965 184.133C477.907 184.385 472.926 185.348 467.875 185.58C464.551 185.734 461.289 186.417 458.001 186.865C461.272 194.448 467.657 201.081 475.679 203.827C482.009 205.994 490.867 206.362 495.191 200.366C497.679 196.917 501.743 183.014 494.563 182.884ZM688.65 151.562C684.586 154.264 681.328 158.135 677.933 161.589C669.428 170.239 660.628 179.5 656.947 191.358C656.441 192.982 660.275 194.418 661.313 194.481C663.506 194.613 663.952 193.506 664.814 191.652C666.944 187.061 667.761 181.933 671.17 178.019C675.324 173.246 680.326 168.593 685.147 164.493C688.424 161.707 696.454 157.784 697.396 153.178C698.51 147.732 691.111 149.927 688.65 151.562ZM583.809 183.071C581.511 183.74 581.328 185.868 580.802 188.161C578.69 197.373 600.057 187.322 603.032 185.817C602.043 182.859 592.304 183.398 590.049 183.282C588.293 183.193 585.506 182.577 583.809 183.071ZM710.026 187.856C706.859 187.978 708.319 175.038 711.918 176.339C715.005 177.456 712.055 187.777 710.026 187.856ZM264.902 172.977C260.053 177.164 252.442 177.726 246.414 179.07C237.531 181.051 228.726 183.575 219.916 185.853C214.352 187.291 217.484 183.861 220.27 182.572C225.059 180.356 230.482 179.175 235.601 177.956C241.143 176.636 246.807 175.755 252.317 174.315C256.133 173.317 261.054 170.766 264.902 172.977ZM415.733 82.9818C421.121 83.9719 426.5 85.6961 431.223 88.5204C435.133 90.8584 434.978 94.4961 430.021 92.3854C406.899 82.5375 378.207 88.5029 355.628 97.223C353.137 98.1845 353.322 96.0864 354.075 94.4691C355.112 92.2412 357.327 90.9479 359.454 89.9135C365.844 86.8041 373.211 85.0458 380.16 83.7541C391.74 81.6014 404.099 80.845 415.733 82.9818ZM419.112 68.837C422.05 69.6344 425.426 71.6123 427.223 74.1212C429.326 77.0573 427.653 78.558 424.735 76.8312C421.478 74.9041 418.5 72.9826 414.762 71.9647C412.789 71.428 412.868 70.1896 414.286 69.1026C415.612 68.0847 417.672 68.446 419.112 68.837Z" fill="black"/>
<g style="mix-blend-mode:overlay">
<path fill-rule="evenodd" clip-rule="evenodd" d="M782.503 101.408L689.404 600.619L307.092 279.789L782.503 101.408Z" fill="white" fill-opacity="0.5"/>
</g>
<g style="mix-blend-mode:overlay">
<path fill-rule="evenodd" clip-rule="evenodd" d="M752.803 196.197L903.065 151.013L918.431 186.727L769.615 251.057L752.803 196.197Z" fill="#389DFF"/>
</g>
<g style="mix-blend-mode:overlay">
<path fill-rule="evenodd" clip-rule="evenodd" d="M810.472 109.376L959.952 61.6306L973.641 91.8699L824.822 156.207L810.472 109.376Z" fill="#389DFF"/>
</g>
<g style="mix-blend-mode:overlay">
<path fill-rule="evenodd" clip-rule="evenodd" d="M66.962 545.672L217.224 500.489L232.591 536.202L83.7742 600.532L66.962 545.672Z" fill="#389DFF"/>
</g>
<g style="mix-blend-mode:overlay">
<path fill-rule="evenodd" clip-rule="evenodd" d="M124.631 458.851L274.112 411.106L287.8 441.345L138.982 505.682L124.631 458.851Z" fill="#389DFF"/>
</g>
</g>
<defs>
<clipPath id="clip0">
<rect width="1058" height="647" fill="white"/>
</clipPath>
</defs>
</svg>
